<mxfile host="app.diagrams.net" modified="2021-10-11T10:11:33.457Z" agent="5.0 (X11)" etag="Ztz260VkAuc99hYcgHS_" version="15.3.1" type="github">
  <diagram id="8mvwX7pJAU95_cU4-fAn" name="Page-1">
    <mxGraphModel dx="1129" dy="661" grid="1" gridSize="10" guides="1" tooltips="1" connect="1" arrows="1" fold="1" page="1" pageScale="1" pageWidth="827" pageHeight="1169" math="0" shadow="0">
      <root>
        <mxCell id="0" />
        <mxCell id="1" parent="0" />
        <mxCell id="DBkFjpXuM5m9NPrzc2UE-1" value="&lt;font style=&quot;font-size: 19px&quot;&gt;C3&lt;/font&gt;" style="html=1;align=center;verticalAlign=top;rounded=1;absoluteArcSize=1;arcSize=10;dashed=0;" parent="1" vertex="1">
          <mxGeometry x="316" y="60" width="190" height="80" as="geometry" />
        </mxCell>
        <mxCell id="DBkFjpXuM5m9NPrzc2UE-38" value="&lt;div align=&quot;center&quot;&gt;&lt;font style=&quot;font-size: 19px&quot;&gt;C1&lt;/font&gt;&lt;/div&gt;" style="html=1;align=center;verticalAlign=top;rounded=1;absoluteArcSize=1;arcSize=10;dashed=0;" parent="1" vertex="1">
          <mxGeometry x="130" y="280" width="550" height="180" as="geometry" />
        </mxCell>
        <mxCell id="DBkFjpXuM5m9NPrzc2UE-4" value="&lt;font style=&quot;font-size: 18px&quot;&gt;Interface&lt;br&gt;fournie&lt;/font&gt;" style="text;html=1;align=center;verticalAlign=middle;resizable=0;points=[];autosize=1;strokeColor=none;fillColor=none;" parent="1" vertex="1">
          <mxGeometry x="226" y="55" width="90" height="40" as="geometry" />
        </mxCell>
        <mxCell id="DBkFjpXuM5m9NPrzc2UE-5" value="&lt;div style=&quot;font-size: 18px&quot;&gt;&lt;font style=&quot;font-size: 18px&quot;&gt;Interface&lt;/font&gt;&lt;/div&gt;&lt;div style=&quot;font-size: 18px&quot;&gt;&lt;font style=&quot;font-size: 18px&quot;&gt;requise&lt;br&gt;&lt;/font&gt;&lt;/div&gt;" style="text;html=1;align=center;verticalAlign=middle;resizable=0;points=[];autosize=1;strokeColor=none;fillColor=none;" parent="1" vertex="1">
          <mxGeometry x="510" y="60" width="90" height="30" as="geometry" />
        </mxCell>
        <mxCell id="DBkFjpXuM5m9NPrzc2UE-7" value="&lt;div align=&quot;center&quot;&gt;&lt;font style=&quot;font-size: 19px&quot;&gt;C2&lt;/font&gt;&lt;/div&gt;" style="html=1;align=center;verticalAlign=top;rounded=1;absoluteArcSize=1;arcSize=10;dashed=0;" parent="1" vertex="1">
          <mxGeometry x="179" y="360" width="340" height="80" as="geometry" />
        </mxCell>
        <mxCell id="DBkFjpXuM5m9NPrzc2UE-8" value="connV" style="html=1;" parent="1" vertex="1">
          <mxGeometry x="247.25" y="385" width="50" height="20" as="geometry" />
        </mxCell>
        <mxCell id="DBkFjpXuM5m9NPrzc2UE-9" value="&lt;font style=&quot;font-size: 19px&quot;&gt;C3&lt;/font&gt;" style="html=1;align=center;verticalAlign=top;rounded=1;absoluteArcSize=1;arcSize=10;dashed=0;" parent="1" vertex="1">
          <mxGeometry x="229" y="375" width="100" height="50" as="geometry" />
        </mxCell>
        <mxCell id="DBkFjpXuM5m9NPrzc2UE-10" value="&lt;font style=&quot;font-size: 15px&quot;&gt;if3&lt;/font&gt;" style="html=1;" parent="1" vertex="1">
          <mxGeometry x="229" y="395" width="35" height="20" as="geometry" />
        </mxCell>
        <mxCell id="DBkFjpXuM5m9NPrzc2UE-11" value="&lt;font style=&quot;font-size: 19px&quot;&gt;C4&lt;/font&gt;" style="html=1;align=center;verticalAlign=top;rounded=1;absoluteArcSize=1;arcSize=10;dashed=0;" parent="1" vertex="1">
          <mxGeometry x="379" y="375" width="90" height="50" as="geometry" />
        </mxCell>
        <mxCell id="DBkFjpXuM5m9NPrzc2UE-12" value="&lt;font style=&quot;font-size: 15px&quot;&gt;if4&lt;/font&gt;" style="html=1;" parent="1" vertex="1">
          <mxGeometry x="372.5" y="395" width="35" height="20" as="geometry" />
        </mxCell>
        <mxCell id="DBkFjpXuM5m9NPrzc2UE-16" value="&lt;font style=&quot;font-size: 15px&quot;&gt;if2&lt;/font&gt;" style="html=1;" parent="1" vertex="1">
          <mxGeometry x="170" y="395" width="35" height="20" as="geometry" />
        </mxCell>
        <mxCell id="DBkFjpXuM5m9NPrzc2UE-17" value="" style="rounded=0;orthogonalLoop=1;jettySize=auto;html=1;endArrow=none;endFill=0;exitX=1;exitY=0.5;exitDx=0;exitDy=0;entryX=0;entryY=0.5;entryDx=0;entryDy=0;" parent="1" source="DBkFjpXuM5m9NPrzc2UE-16" target="DBkFjpXuM5m9NPrzc2UE-10" edge="1">
          <mxGeometry relative="1" as="geometry">
            <mxPoint x="224" y="405" as="sourcePoint" />
            <mxPoint x="252.75" y="405" as="targetPoint" />
            <Array as="points" />
          </mxGeometry>
        </mxCell>
        <mxCell id="DBkFjpXuM5m9NPrzc2UE-18" value="" style="rounded=0;orthogonalLoop=1;jettySize=auto;html=1;endArrow=halfCircle;endFill=0;endSize=6;strokeWidth=1;" parent="1" edge="1">
          <mxGeometry relative="1" as="geometry">
            <mxPoint x="230.25" y="405" as="sourcePoint" />
            <mxPoint x="230.25" y="405" as="targetPoint" />
          </mxGeometry>
        </mxCell>
        <mxCell id="DBkFjpXuM5m9NPrzc2UE-19" value="&lt;font style=&quot;font-size: 15px&quot;&gt;ir1&lt;/font&gt;" style="html=1;" parent="1" vertex="1">
          <mxGeometry x="299" y="395" width="30" height="20" as="geometry" />
        </mxCell>
        <mxCell id="DBkFjpXuM5m9NPrzc2UE-21" value="&lt;font style=&quot;font-size: 19px&quot;&gt;C5&lt;/font&gt;" style="html=1;align=center;verticalAlign=top;rounded=1;absoluteArcSize=1;arcSize=10;dashed=0;" parent="1" vertex="1">
          <mxGeometry x="600" y="300" width="70" height="50" as="geometry" />
        </mxCell>
        <mxCell id="DBkFjpXuM5m9NPrzc2UE-26" value="" style="rounded=0;orthogonalLoop=1;jettySize=auto;html=1;endArrow=none;endFill=0;exitX=1;exitY=0.5;exitDx=0;exitDy=0;entryX=0;entryY=0.5;entryDx=0;entryDy=0;" parent="1" source="DBkFjpXuM5m9NPrzc2UE-32" target="DBkFjpXuM5m9NPrzc2UE-64" edge="1">
          <mxGeometry relative="1" as="geometry">
            <mxPoint x="615.75" y="430" as="sourcePoint" />
            <mxPoint x="486.75" y="315" as="targetPoint" />
            <Array as="points">
              <mxPoint x="489" y="405" />
              <mxPoint x="489" y="385" />
            </Array>
          </mxGeometry>
        </mxCell>
        <mxCell id="DBkFjpXuM5m9NPrzc2UE-32" value="&lt;font style=&quot;font-size: 15px&quot;&gt;ir2&lt;/font&gt;" style="html=1;" parent="1" vertex="1">
          <mxGeometry x="445" y="395" width="30" height="20" as="geometry" />
        </mxCell>
        <mxCell id="DBkFjpXuM5m9NPrzc2UE-33" value="&lt;font style=&quot;font-size: 16px&quot;&gt;if5&lt;/font&gt;" style="html=1;" parent="1" vertex="1">
          <mxGeometry x="580" y="315" width="35" height="20" as="geometry" />
        </mxCell>
        <mxCell id="DBkFjpXuM5m9NPrzc2UE-37" value="&lt;font style=&quot;font-size: 15px&quot;&gt;if1&lt;/font&gt;" style="html=1;" parent="1" vertex="1">
          <mxGeometry x="115" y="320" width="35" height="20" as="geometry" />
        </mxCell>
        <mxCell id="DBkFjpXuM5m9NPrzc2UE-40" value="" style="rounded=0;orthogonalLoop=1;jettySize=auto;html=1;endArrow=none;endFill=0;exitX=0;exitY=0.75;exitDx=0;exitDy=0;entryX=1;entryY=0.5;entryDx=0;entryDy=0;" parent="1" source="DBkFjpXuM5m9NPrzc2UE-16" target="DBkFjpXuM5m9NPrzc2UE-37" edge="1">
          <mxGeometry relative="1" as="geometry">
            <mxPoint x="169" y="420" as="sourcePoint" />
            <mxPoint x="200" y="330" as="targetPoint" />
            <Array as="points">
              <mxPoint x="160" y="410" />
              <mxPoint x="160" y="330" />
            </Array>
          </mxGeometry>
        </mxCell>
        <mxCell id="DBkFjpXuM5m9NPrzc2UE-41" value="&lt;div align=&quot;center&quot;&gt;&lt;font style=&quot;font-size: 19px&quot;&gt;C1&lt;/font&gt;&lt;/div&gt;" style="html=1;align=center;verticalAlign=top;rounded=1;absoluteArcSize=1;arcSize=10;dashed=0;" parent="1" vertex="1">
          <mxGeometry x="125.75" y="510" width="510" height="180" as="geometry" />
        </mxCell>
        <mxCell id="DBkFjpXuM5m9NPrzc2UE-42" value="&lt;div align=&quot;center&quot;&gt;&lt;font style=&quot;font-size: 19px&quot;&gt;C2&lt;/font&gt;&lt;/div&gt;" style="html=1;align=center;verticalAlign=top;rounded=1;absoluteArcSize=1;arcSize=10;dashed=0;" parent="1" vertex="1">
          <mxGeometry x="180" y="590" width="380" height="90" as="geometry" />
        </mxCell>
        <mxCell id="DBkFjpXuM5m9NPrzc2UE-43" value="connV" style="html=1;" parent="1" vertex="1">
          <mxGeometry x="270.75" y="625" width="50" height="20" as="geometry" />
        </mxCell>
        <mxCell id="DBkFjpXuM5m9NPrzc2UE-44" value="&lt;font style=&quot;font-size: 19px&quot;&gt;C3&lt;/font&gt;" style="html=1;align=center;verticalAlign=top;rounded=1;absoluteArcSize=1;arcSize=10;dashed=0;" parent="1" vertex="1">
          <mxGeometry x="252.5" y="615" width="100" height="50" as="geometry" />
        </mxCell>
        <mxCell id="DBkFjpXuM5m9NPrzc2UE-45" value="" style="html=1;" parent="1" vertex="1">
          <mxGeometry x="252.5" y="635" width="27.5" height="20" as="geometry" />
        </mxCell>
        <mxCell id="DBkFjpXuM5m9NPrzc2UE-46" value="&lt;font style=&quot;font-size: 19px&quot;&gt;C4&lt;/font&gt;" style="html=1;align=center;verticalAlign=top;rounded=1;absoluteArcSize=1;arcSize=10;dashed=0;" parent="1" vertex="1">
          <mxGeometry x="390" y="615" width="100" height="50" as="geometry" />
        </mxCell>
        <mxCell id="DBkFjpXuM5m9NPrzc2UE-47" value="" style="html=1;" parent="1" vertex="1">
          <mxGeometry x="390" y="635" width="26.75" height="20" as="geometry" />
        </mxCell>
        <mxCell id="DBkFjpXuM5m9NPrzc2UE-49" value="" style="html=1;" parent="1" vertex="1">
          <mxGeometry x="180" y="635" width="24.25" height="20" as="geometry" />
        </mxCell>
        <mxCell id="DBkFjpXuM5m9NPrzc2UE-51" value="" style="rounded=0;orthogonalLoop=1;jettySize=auto;html=1;endArrow=halfCircle;endFill=0;endSize=6;strokeWidth=1;" parent="1" edge="1">
          <mxGeometry relative="1" as="geometry">
            <mxPoint x="253.75" y="645" as="sourcePoint" />
            <mxPoint x="253.75" y="645" as="targetPoint" />
          </mxGeometry>
        </mxCell>
        <mxCell id="DBkFjpXuM5m9NPrzc2UE-52" value="" style="html=1;" parent="1" vertex="1">
          <mxGeometry x="322.5" y="635" width="30" height="20" as="geometry" />
        </mxCell>
        <mxCell id="DBkFjpXuM5m9NPrzc2UE-53" value="&lt;font style=&quot;font-size: 19px&quot;&gt;C5&lt;/font&gt;" style="html=1;align=center;verticalAlign=top;rounded=1;absoluteArcSize=1;arcSize=10;dashed=0;" parent="1" vertex="1">
          <mxGeometry x="532.5" y="530" width="99" height="50" as="geometry" />
        </mxCell>
        <mxCell id="DBkFjpXuM5m9NPrzc2UE-57" value="" style="html=1;" parent="1" vertex="1">
          <mxGeometry x="460" y="635" width="30" height="20" as="geometry" />
        </mxCell>
        <mxCell id="DBkFjpXuM5m9NPrzc2UE-58" value="" style="html=1;" parent="1" vertex="1">
          <mxGeometry x="532.5" y="545" width="27.5" height="20" as="geometry" />
        </mxCell>
        <mxCell id="DBkFjpXuM5m9NPrzc2UE-59" value="" style="html=1;" parent="1" vertex="1">
          <mxGeometry x="125.75" y="550" width="24.25" height="20" as="geometry" />
        </mxCell>
        <mxCell id="DBkFjpXuM5m9NPrzc2UE-64" value="&lt;font style=&quot;font-size: 15px&quot;&gt;ir3&lt;/font&gt;" style="html=1;" parent="1" vertex="1">
          <mxGeometry x="509" y="375" width="30" height="20" as="geometry" />
        </mxCell>
        <mxCell id="MeG-Pky7uKV6WekuSL3f-1" value="" style="rounded=0;orthogonalLoop=1;jettySize=auto;html=1;endArrow=none;endFill=0;" edge="1" parent="1" target="MeG-Pky7uKV6WekuSL3f-3">
          <mxGeometry relative="1" as="geometry">
            <mxPoint x="316" y="105" as="sourcePoint" />
          </mxGeometry>
        </mxCell>
        <mxCell id="MeG-Pky7uKV6WekuSL3f-2" value="" style="rounded=0;orthogonalLoop=1;jettySize=auto;html=1;endArrow=halfCircle;endFill=0;endSize=6;strokeWidth=1;" edge="1" parent="1">
          <mxGeometry relative="1" as="geometry">
            <mxPoint x="506" y="104.76" as="sourcePoint" />
            <mxPoint x="536" y="104.76" as="targetPoint" />
            <Array as="points" />
          </mxGeometry>
        </mxCell>
        <mxCell id="MeG-Pky7uKV6WekuSL3f-3" value="" style="ellipse;whiteSpace=wrap;html=1;fontFamily=Helvetica;fontSize=12;fontColor=#000000;align=center;strokeColor=#000000;fillColor=#ffffff;points=[];aspect=fixed;resizable=0;" vertex="1" parent="1">
          <mxGeometry x="275" y="100" width="10" height="10" as="geometry" />
        </mxCell>
        <mxCell id="MeG-Pky7uKV6WekuSL3f-7" value="&lt;font style=&quot;font-size: 16px&quot;&gt;ir&lt;/font&gt;" style="rounded=0;whiteSpace=wrap;html=1;" vertex="1" parent="1">
          <mxGeometry x="466" y="95" width="40" height="20" as="geometry" />
        </mxCell>
        <mxCell id="MeG-Pky7uKV6WekuSL3f-8" value="&lt;font style=&quot;font-size: 16px&quot;&gt;if&lt;/font&gt;" style="rounded=0;whiteSpace=wrap;html=1;" vertex="1" parent="1">
          <mxGeometry x="316" y="95" width="40" height="20" as="geometry" />
        </mxCell>
        <mxCell id="MeG-Pky7uKV6WekuSL3f-9" value="" style="rounded=0;orthogonalLoop=1;jettySize=auto;html=1;endArrow=none;endFill=0;exitX=0;exitY=0.5;exitDx=0;exitDy=0;" edge="1" parent="1" target="MeG-Pky7uKV6WekuSL3f-11">
          <mxGeometry relative="1" as="geometry">
            <mxPoint x="372.49999999999994" y="404.9999999999999" as="sourcePoint" />
          </mxGeometry>
        </mxCell>
        <mxCell id="MeG-Pky7uKV6WekuSL3f-10" value="" style="rounded=0;orthogonalLoop=1;jettySize=auto;html=1;endArrow=halfCircle;endFill=0;endSize=6;strokeWidth=1;" edge="1" parent="1">
          <mxGeometry relative="1" as="geometry">
            <mxPoint x="335.24999999999994" y="404.9999999999999" as="sourcePoint" />
            <mxPoint x="355.24999999999994" y="404.9999999999999" as="targetPoint" />
            <Array as="points">
              <mxPoint x="329" y="405" />
              <mxPoint x="335.25" y="405" />
            </Array>
          </mxGeometry>
        </mxCell>
        <mxCell id="MeG-Pky7uKV6WekuSL3f-11" value="" style="ellipse;whiteSpace=wrap;html=1;fontFamily=Helvetica;fontSize=12;fontColor=#000000;align=center;strokeColor=#000000;fillColor=#ffffff;points=[];aspect=fixed;resizable=0;" vertex="1" parent="1">
          <mxGeometry x="352.75" y="400" width="10" height="10" as="geometry" />
        </mxCell>
        <mxCell id="MeG-Pky7uKV6WekuSL3f-15" value="" style="rounded=0;orthogonalLoop=1;jettySize=auto;html=1;endArrow=none;endFill=0;" edge="1" parent="1" target="MeG-Pky7uKV6WekuSL3f-17">
          <mxGeometry relative="1" as="geometry">
            <mxPoint x="580" y="325" as="sourcePoint" />
          </mxGeometry>
        </mxCell>
        <mxCell id="MeG-Pky7uKV6WekuSL3f-16" value="" style="rounded=0;orthogonalLoop=1;jettySize=auto;html=1;endArrow=halfCircle;endFill=0;endSize=6;strokeWidth=1;" edge="1" parent="1">
          <mxGeometry relative="1" as="geometry">
            <mxPoint x="539" y="385" as="sourcePoint" />
            <mxPoint x="564" y="325" as="targetPoint" />
            <Array as="points">
              <mxPoint x="549" y="385" />
              <mxPoint x="549" y="325" />
            </Array>
          </mxGeometry>
        </mxCell>
        <mxCell id="MeG-Pky7uKV6WekuSL3f-17" value="" style="ellipse;whiteSpace=wrap;html=1;fontFamily=Helvetica;fontSize=12;fontColor=#000000;align=center;strokeColor=#000000;fillColor=#ffffff;points=[];aspect=fixed;resizable=0;" vertex="1" parent="1">
          <mxGeometry x="560" y="320" width="10" height="10" as="geometry" />
        </mxCell>
      </root>
    </mxGraphModel>
  </diagram>
</mxfile>
